<?xml version="1.0" encoding="utf-8"?>
<!-- Generator: Adobe Illustrator 26.0.1, SVG Export Plug-In . SVG Version: 6.00 Build 0)  -->
<svg version="1.1" id="Layer_1" xmlns="http://www.w3.org/2000/svg" xmlns:xlink="http://www.w3.org/1999/xlink" x="0px" y="0px"
	 viewBox="0 0 274 265" style="enable-background:new 0 0 274 265;" xml:space="preserve">
<style type="text/css">
	.st0{fill:#B5CDFF;}
	.st1{fill:#234B72;}
	.st2{fill:#375798;}
	.st3{fill:#0E3E4C;}
	.st4{fill:#A0B4DE;}
	.st5{fill:#FF4C3B;}
</style>
<g>
	<g>
		<path class="st0" d="M76.08,76.27h171.58v7.02H76.08V76.27z M84.78,109.01h154.19v7.02H84.78V109.01z"/>
		<path class="st0" d="M213.3,148.77h-41.22l-14.57,7.02H92.54v-14.03H213.3c8.33,0,15.58-5.43,17.65-13.19l20.72-78.02H66.45v-7.02
			h189.9c2.01,0,3.64,1.57,3.64,3.51c0,0.29-0.04,0.59-0.11,0.87l-21.88,82.39C235.12,141.18,224.96,148.77,213.3,148.77z"/>
		<path class="st0" d="M202.85,144.82l15.69-98.18l7.2,1.07l-15.69,98.18L202.85,144.82z M175.23,145.05l5.21-98.26l7.28,0.36
			l-5.21,98.26L175.23,145.05z M142.43,47.24l7.28-0.36l5.21,98.26l-7.28,0.36L142.43,47.24z M104.37,47.52l7.2-1.07l15.69,98.19
			l-7.2,1.07L104.37,47.52z"/>
	</g>
	<path class="st1" d="M95.1,218.93l-7.29,14.03L95.1,247c8.05,0,14.57-6.28,14.57-14.03C109.67,225.22,103.15,218.93,95.1,218.93z"
		/>
	<path class="st2" d="M80.53,232.97c0,7.75,6.52,14.03,14.57,14.03v-28.07C87.05,218.93,80.53,225.22,80.53,232.97z"/>
	<path class="st1" d="M219.93,218.93l-7.29,14.03l7.29,14.03c8.05,0,14.57-6.28,14.57-14.03
		C234.5,225.22,227.98,218.93,219.93,218.93z"/>
	<path class="st2" d="M205.36,232.97c0,7.75,6.52,14.03,14.57,14.03v-28.07C211.88,218.93,205.36,225.22,205.36,232.97z"/>
	<ellipse class="st3" cx="95.1" cy="232.97" rx="3.64" ry="3.51"/>
	<ellipse class="st3" cx="219.93" cy="232.97" rx="3.64" ry="3.51"/>
	<path class="st4" d="M234.5,190.87h-14.57v14.03h14.57c4.02,0,7.29-3.14,7.29-7.02C241.79,194.01,238.52,190.87,234.5,190.87z
		 M142.94,162.8h14.57c8.05,0,14.57-6.28,14.57-14.03h-14.57L142.94,162.8z"/>
	<path class="st0" d="M219.93,190.87H73.24c-4.02,0-7.29-3.15-7.29-7.02c0-2.52,1.42-4.86,3.71-6.11l27.35-14.94h45.92
		c8.05,0,14.57-6.28,14.57-14.03h-56.76L72.11,40.91c-1.61-6.1-4.9-11.67-9.53-16.11h-10.3v9.92c2.77,2.67,4.75,6.01,5.72,9.66
		l28.67,107.95l-24.17,13.2c-6.85,3.73-11.1,10.75-11.1,18.32c0,11.61,9.81,21.05,21.86,21.05h146.69c4.02,0,7.29-3.14,7.29-7.02
		C227.21,194.01,223.95,190.87,219.93,190.87z"/>
	<path class="st5" d="M36.81,14.53H22.24c-4.02,0-7.29,3.14-7.29,7.02s3.26,7.02,7.29,7.02h14.57c5.8,0,11.36,2.21,15.46,6.16
		l10.3-9.92C55.92,18.39,46.75,14.53,36.81,14.53z"/>
</g>
</svg>
